<svg width="40" height="40" viewBox="0 0 40 40" fill="none" xmlns="http://www.w3.org/2000/svg">
<path d="M25 11C25.2626 10.7374 25.5744 10.529 25.9176 10.3869C26.2608 10.2447 26.6286 10.1716 27 10.1716C27.3714 10.1716 27.7392 10.2447 28.0824 10.3869C28.4256 10.529 28.7374 10.7374 29 11C29.2626 11.2626 29.471 11.5744 29.6131 11.9176C29.7553 12.2608 29.8284 12.6286 29.8284 13C29.8284 13.3714 29.7553 13.7392 29.6131 14.0824C29.471 14.4255 29.2626 14.7374 29 15L15.5 28.5L10 30L11.5 24.5L25 11Z" stroke="white" stroke-width="2" stroke-linecap="round" stroke-linejoin="round"/>
</svg>
