<svg width="112" height="40" viewBox="0 0 112 40" fill="none" xmlns="http://www.w3.org/2000/svg">
<path d="M24 30C29.5228 30 34 25.5228 34 20C34 14.4772 29.5228 10 24 10C18.4772 10 14 14.4772 14 20C14 25.5228 18.4772 30 24 30Z" stroke="#667085" stroke-width="1.67" stroke-linecap="round" stroke-linejoin="round"/>
<path d="M28.24 15.76L26.12 22.12L19.76 24.24L21.88 17.88L28.24 15.76Z" stroke="#667085" stroke-width="1.67" stroke-linecap="round" stroke-linejoin="round"/>
<path d="M52 20H60M66 20C66 25.5228 61.5228 30 56 30C50.4772 30 46 25.5228 46 20C46 14.4772 50.4772 10 56 10C61.5228 10 66 14.4772 66 20Z" stroke="#667085" stroke-width="1.67" stroke-linecap="round" stroke-linejoin="round"/>
<path d="M88 16V24M84 20H92M98 20C98 25.5228 93.5228 30 88 30C82.4772 30 78 25.5228 78 20C78 14.4772 82.4772 10 88 10C93.5228 10 98 14.4772 98 20Z" stroke="#667085" stroke-width="2" stroke-linecap="round" stroke-linejoin="round"/>
<path d="M111 0V40H113V0H111Z" fill="#344054" mask="url(#path-1-inside-1_370_25703)"/>
</svg>
